<svg width="46" height="46" viewBox="0 0 46 46" fill="none" xmlns="http://www.w3.org/2000/svg">
<g clip-path="url(#clip0_8153_113)">
<path d="M45.5057 33.5319C43.7647 26.1119 38.3447 15.7739 21.9517 13.5899V7.04689C21.9517 5.68289 21.1257 4.45389 19.8647 3.93389C18.6037 3.41289 17.1528 3.70489 16.1898 4.67089L1.30475 19.6299C-0.43425 21.3779 -0.43525 24.2019 1.30375 25.9499L16.1898 40.9089C17.1508 41.8749 18.6047 42.1669 19.8657 41.6459C21.1267 41.1249 21.9527 39.8959 21.9527 38.5329V32.2019C27.5457 32.2089 35.6087 32.9449 41.3447 36.5149C42.2977 37.1089 43.5127 37.0699 44.4247 36.4139C45.3347 35.7619 45.7627 34.6239 45.5057 33.5319Z" fill="#6F7482"/>
</g>
<defs>
<clipPath id="clip0_8153_113">
<rect width="45.58" height="45.58" fill="white"/>
</clipPath>
</defs>
</svg>
