<svg width="458" height="42" viewBox="0 0 458 42" fill="none" xmlns="http://www.w3.org/2000/svg">
<line x1="458" y1="24.5" y2="24.5" stroke="#B8BCCA"/>
<rect width="42" height="42" transform="translate(208)" fill="#EAEBEF"/>
<path d="M223.75 19.25H220.25V22.75H223.75V19.25ZM230.75 19.25H227.25V22.75H230.75V19.25ZM237.75 19.25H234.25V22.75H237.75V19.25ZM241.25 7H239.5V3.5H236V7H222V3.5H218.5V7H216.75C214.807 7 213.267 8.575 213.267 10.5L213.25 35C213.25 36.925 214.807 38.5 216.75 38.5H241.25C243.175 38.5 244.75 36.925 244.75 35V10.5C244.75 8.575 243.175 7 241.25 7ZM241.25 35H216.75V15.75H241.25V35Z" fill="#61435D"/>
</svg>
