<svg width="458" height="42" viewBox="0 0 458 42" fill="none" xmlns="http://www.w3.org/2000/svg">
<line x1="458" y1="21.5" y2="21.5" stroke="#B8BCCA"/>
<rect width="42" height="42" transform="translate(208)" fill="#EAEBEF"/>
<path d="M238.9 9.28185C233.433 3.9041 224.569 3.9041 219.102 9.28185C213.635 14.6613 213.635 23.3816 219.102 28.7593L229 38.4981L238.9 28.7593C244.367 23.3816 244.367 14.6613 238.9 9.28185ZM229 23.6231C227.831 23.6231 226.734 23.1681 225.906 22.3421C224.2 20.6358 224.2 17.8603 225.906 16.1541C226.732 15.3281 227.831 14.8731 229 14.8731C230.169 14.8731 231.268 15.3281 232.094 16.1541C233.8 17.8603 233.8 20.6376 232.094 22.3421C231.268 23.1681 230.169 23.6231 229 23.6231Z" fill="#61435D"/>
</svg>
