<svg width="458" height="42" viewBox="0 0 458 42" fill="none" xmlns="http://www.w3.org/2000/svg">
<line x1="458" y1="21.5" y2="21.5" stroke="#B8BCCA"/>
<rect width="42" height="42" transform="translate(208)" fill="#EAEBEF"/>
<path d="M214.675 8.31787C216.963 8.31787 218.817 6.4635 218.817 4.17602C218.817 1.88855 216.963 0.0341797 214.675 0.0341797C212.388 0.0341797 210.533 1.88855 210.533 4.17602C210.533 6.4635 212.388 8.31787 214.675 8.31787Z" fill="#61435D"/>
<path d="M210.054 22.8313H210.465V31.0465C210.465 32.1764 211.389 33.1003 212.518 33.1003H216.831C217.961 33.1003 218.885 32.1764 218.885 31.0465V30.5676C218.509 29.8484 218.269 29.0273 218.269 28.1715V17.4233C218.269 15.3352 219.536 13.521 221.35 12.7337V11.9122C221.35 10.7826 220.426 9.8584 219.296 9.8584H210.054C208.924 9.8584 208 10.7826 208 11.9122V20.7778C208 21.9074 208.89 22.8313 210.054 22.8313Z" fill="#61435D"/>
<path d="M243.36 8.31787C245.647 8.31787 247.501 6.4635 247.501 4.17602C247.501 1.88855 245.647 0.0341797 243.36 0.0341797C241.072 0.0341797 239.218 1.88855 239.218 4.17602C239.218 6.4635 241.072 8.31787 243.36 8.31787Z" fill="#61435D"/>
<path d="M236.65 11.878V12.6995C238.465 13.4868 239.731 15.301 239.731 17.3891V28.1031C239.731 28.9588 239.526 29.7804 239.115 30.4992V30.9784C239.115 32.108 240.039 33.0322 241.169 33.0322H245.482C246.612 33.0322 247.536 32.108 247.536 30.9784V22.7632H247.946C249.076 22.7632 250 21.839 250 20.7094V11.878C250 10.7484 249.076 9.82422 247.946 9.82422H238.704C237.575 9.82422 236.65 10.7481 236.65 11.878Z" fill="#61435D"/>
<path d="M221.384 17.4226V20.7772V28.1709C221.384 29.3005 222.308 30.2247 223.438 30.2247H224.225V39.9118C224.225 41.0414 225.149 41.9656 226.279 41.9656H231.79C232.919 41.9656 233.844 41.0414 233.844 39.9118V30.1904H234.631C235.76 30.1904 236.685 29.2666 236.685 28.1366V20.7775V17.4229C236.685 16.2934 235.76 15.3691 234.631 15.3691H223.438C222.274 15.3688 221.384 16.2934 221.384 17.4226Z" fill="#61435D"/>
<path d="M229.017 13.6576C231.645 13.6576 233.775 11.5273 233.775 8.89959C233.775 6.27182 231.645 4.1416 229.017 4.1416C226.39 4.1416 224.259 6.27182 224.259 8.89959C224.259 11.5273 226.39 13.6576 229.017 13.6576Z" fill="#61435D"/>
</svg>
