<svg width="458" height="51" viewBox="0 0 458 51" fill="none" xmlns="http://www.w3.org/2000/svg">
<line x1="458" y1="26.5" y2="26.5" stroke="#B8BCCA"/>
<rect x="208" y="5" width="42" height="42" fill="#EAEBEF"/>
<path d="M229.741 35.7147C230.944 35.5558 231.852 35.1529 232.465 34.5061C233.089 33.8479 233.401 32.9911 233.401 31.9357C233.401 31.5044 233.322 31.1299 233.163 30.8122C233.015 30.4831 232.8 30.1937 232.516 29.944C232.243 29.6944 231.92 29.4788 231.546 29.2972C231.171 29.1156 230.763 28.9454 230.32 28.7865L229.741 35.7147ZM228.652 17.7219C228.016 17.8014 227.477 17.9375 227.035 18.1305C226.592 18.312 226.229 18.539 225.945 18.8114C225.661 19.0837 225.452 19.3901 225.315 19.7306C225.191 20.071 225.128 20.4285 225.128 20.803C225.128 21.2342 225.202 21.6144 225.349 21.9435C225.508 22.2612 225.718 22.5506 225.979 22.8116C226.252 23.0613 226.569 23.2883 226.932 23.4925C227.296 23.6855 227.693 23.867 228.124 24.0373L228.652 17.7219ZM230.643 24.8543C231.46 25.104 232.272 25.382 233.078 25.6884C233.883 25.9835 234.604 26.3693 235.239 26.846C235.886 27.3226 236.408 27.9184 236.805 28.6333C237.203 29.3369 237.401 30.2221 237.401 31.2888C237.401 32.3442 237.225 33.3372 236.874 34.2678C236.522 35.187 236.005 36.004 235.325 36.719C234.644 37.4226 233.81 38.0013 232.822 38.4553C231.835 38.8979 230.706 39.1589 229.435 39.2383L229.231 41.7406C229.219 42.0016 229.106 42.2399 228.89 42.4556C228.686 42.6825 228.425 42.796 228.107 42.796H226.558L226.864 39.1532C225.537 38.9716 224.288 38.6085 223.119 38.0638C221.951 37.519 220.958 36.8438 220.141 36.0381L221.434 34.1146C221.548 33.9443 221.695 33.8081 221.877 33.706C222.07 33.5925 222.274 33.5358 222.49 33.5358C222.739 33.5358 223.006 33.6266 223.29 33.8081C223.573 33.9784 223.897 34.1826 224.26 34.421C224.623 34.6479 225.037 34.8806 225.503 35.1189C225.968 35.3572 226.518 35.5331 227.154 35.6466L227.784 28.0375C226.978 27.8106 226.178 27.5439 225.383 27.2375C224.6 26.9311 223.891 26.5282 223.256 26.0289C222.631 25.5182 222.126 24.877 221.741 24.1053C221.355 23.3337 221.162 22.3691 221.162 21.2115C221.162 20.3491 221.332 19.5093 221.673 18.6922C222.013 17.8638 222.512 17.1261 223.171 16.4793C223.84 15.8324 224.657 15.2991 225.622 14.8792C226.586 14.4593 227.693 14.221 228.941 14.1642L229.128 12.0194C229.151 11.747 229.265 11.503 229.469 11.2874C229.673 11.0718 229.94 10.964 230.269 10.964H231.818L231.546 14.3004C232.748 14.4933 233.787 14.8394 234.661 15.3388C235.534 15.8267 236.289 16.3771 236.925 16.99L235.903 18.539C235.756 18.766 235.603 18.9362 235.444 19.0497C235.285 19.1632 235.092 19.2199 234.865 19.2199C234.695 19.2199 234.49 19.1688 234.252 19.0667C234.014 18.9532 233.747 18.8227 233.452 18.6752C233.157 18.5163 232.822 18.3574 232.448 18.1985C232.085 18.0397 231.682 17.9092 231.239 17.807L230.643 24.8543Z" fill="#61435D"/>
</svg>
